<?xml version="1.0"?>
<mxfile host="www.draw.io" modified="2020-07-13T11:55:23.155Z" agent="5.0 (X11; Linux x86_64) AppleWebKit/537.36 (KHTML, like Gecko) Chrome/83.0.4103.116 Safari/537.36" etag="K6bjanshEakRpyftmodi" version="13.3.9">
  <diagram id="UXMjK2sftDNDYXN-YtjV" name="Router">
    <mxGraphModel dx="2" dy="1" grid="1" gridSize="10" guides="1" tooltips="1" connect="1" arrows="1" fold="1" page="1" pageScale="1" pageWidth="1654" pageHeight="1169" math="0" shadow="0">
      <root>
        <mxCell id="0"/>
        <mxCell id="1" parent="0"/>
        <mxCell id="21" style="edgeStyle=orthogonalEdgeStyle;rounded=0;orthogonalLoop=1;jettySize=auto;html=1;strokeColor=#D79B00;strokeWidth=3;" parent="1" source="2" edge="1">
          <mxGeometry relative="1" as="geometry">
            <mxPoint x="670" y="120.21000000000004" as="targetPoint"/>
          </mxGeometry>
        </mxCell>
        <mxCell id="2" value="" style="ellipse;whiteSpace=wrap;html=1;aspect=fixed;fillColor=#d5e8d4;rotation=0;strokeColor=#82b366;" parent="1" vertex="1">
          <mxGeometry x="509.78999999999996" y="110" width="20.42" height="20.42" as="geometry"/>
        </mxCell>
        <mxCell id="5" value="" style="ellipse;whiteSpace=wrap;html=1;aspect=fixed;fillColor=#d5e8d4;strokeColor=#82b366;rotation=0;" parent="1" vertex="1">
          <mxGeometry x="590" y="110" width="20.42" height="20.42" as="geometry"/>
        </mxCell>
        <mxCell id="39" style="edgeStyle=orthogonalEdgeStyle;rounded=0;orthogonalLoop=1;jettySize=auto;html=1;strokeColor=#D79B00;strokeWidth=3;fontColor=#82B366;" parent="1" source="7" edge="1">
          <mxGeometry relative="1" as="geometry">
            <mxPoint x="800" y="120.21000000000004" as="targetPoint"/>
          </mxGeometry>
        </mxCell>
        <mxCell id="7" value="" style="ellipse;whiteSpace=wrap;html=1;aspect=fixed;fillColor=#d5e8d4;rotation=0;strokeColor=#82b366;" parent="1" vertex="1">
          <mxGeometry x="750" y="110" width="20.42" height="20.42" as="geometry"/>
        </mxCell>
        <mxCell id="19" style="edgeStyle=orthogonalEdgeStyle;rounded=0;orthogonalLoop=1;jettySize=auto;html=1;strokeColor=#D79B00;strokeWidth=3;" parent="1" source="8" target="10" edge="1">
          <mxGeometry relative="1" as="geometry"/>
        </mxCell>
        <mxCell id="8" value="" style="ellipse;whiteSpace=wrap;html=1;aspect=fixed;fillColor=#d5e8d4;rotation=0;strokeColor=#82b366;" parent="1" vertex="1">
          <mxGeometry x="830" y="110" width="20.42" height="20.42" as="geometry"/>
        </mxCell>
        <mxCell id="9" value="" style="ellipse;whiteSpace=wrap;html=1;aspect=fixed;fillColor=#d5e8d4;strokeColor=#82b366;rotation=0;" parent="1" vertex="1">
          <mxGeometry x="910" y="110" width="20.42" height="20.42" as="geometry"/>
        </mxCell>
        <mxCell id="10" value="" style="ellipse;whiteSpace=wrap;html=1;aspect=fixed;fillColor=#d5e8d4;strokeColor=#82b366;rotation=0;" parent="1" vertex="1">
          <mxGeometry x="990" y="110" width="20.42" height="20.42" as="geometry"/>
        </mxCell>
        <mxCell id="22" value="Start" style="text;html=1;strokeColor=none;fillColor=none;align=center;verticalAlign=middle;whiteSpace=wrap;rounded=0;" parent="1" vertex="1">
          <mxGeometry x="500" y="80" width="40" height="20" as="geometry"/>
        </mxCell>
        <mxCell id="23" value="Goal" style="text;html=1;strokeColor=none;fillColor=none;align=center;verticalAlign=middle;whiteSpace=wrap;rounded=0;" parent="1" vertex="1">
          <mxGeometry x="980.21" y="80" width="40" height="20" as="geometry"/>
        </mxCell>
        <mxCell id="25" value="1" style="text;html=1;strokeColor=none;fillColor=none;align=center;verticalAlign=middle;whiteSpace=wrap;rounded=0;" parent="1" vertex="1">
          <mxGeometry x="500" y="130.42000000000002" width="40" height="20" as="geometry"/>
        </mxCell>
        <mxCell id="26" value="2" style="text;html=1;strokeColor=none;fillColor=none;align=center;verticalAlign=middle;whiteSpace=wrap;rounded=0;" parent="1" vertex="1">
          <mxGeometry x="580.21" y="130.42000000000002" width="40" height="20" as="geometry"/>
        </mxCell>
        <mxCell id="27" value="3" style="text;html=1;strokeColor=none;fillColor=none;align=center;verticalAlign=middle;whiteSpace=wrap;rounded=0;" parent="1" vertex="1">
          <mxGeometry x="660.21" y="130.42000000000002" width="40" height="20" as="geometry"/>
        </mxCell>
        <mxCell id="28" value="4&lt;span style=&quot;color: rgba(0 , 0 , 0 , 0) ; font-family: monospace ; font-size: 0px&quot;&gt;%3CmxGraphModel%3E%3Croot%3E%3CmxCell%20id%3D%220%22%2F%3E%3CmxCell%20id%3D%221%22%20parent%3D%220%22%2F%3E%3CmxCell%20id%3D%222%22%20value%3D%221%22%20style%3D%22text%3Bhtml%3D1%3BstrokeColor%3Dnone%3BfillColor%3Dnone%3Balign%3Dcenter%3BverticalAlign%3Dmiddle%3BwhiteSpace%3Dwrap%3Brounded%3D0%3B%22%20vertex%3D%221%22%20parent%3D%221%22%3E%3CmxGeometry%20x%3D%22500%22%20y%3D%22370.42%22%20width%3D%2240%22%20height%3D%2220%22%20as%3D%22geometry%22%2F%3E%3C%2FmxCell%3E%3C%2Froot%3E%3C%2FmxGraphModel%3E&lt;/span&gt;" style="text;html=1;strokeColor=none;fillColor=none;align=center;verticalAlign=middle;whiteSpace=wrap;rounded=0;" parent="1" vertex="1">
          <mxGeometry x="740.21" y="130.42000000000002" width="40" height="20" as="geometry"/>
        </mxCell>
        <mxCell id="29" value="5" style="text;html=1;strokeColor=none;fillColor=none;align=center;verticalAlign=middle;whiteSpace=wrap;rounded=0;" parent="1" vertex="1">
          <mxGeometry x="820.21" y="130.42000000000002" width="40" height="20" as="geometry"/>
        </mxCell>
        <mxCell id="30" value="6" style="text;html=1;strokeColor=none;fillColor=none;align=center;verticalAlign=middle;whiteSpace=wrap;rounded=0;" parent="1" vertex="1">
          <mxGeometry x="900.21" y="130.42000000000002" width="40" height="20" as="geometry"/>
        </mxCell>
        <mxCell id="31" value="7" style="text;html=1;strokeColor=none;fillColor=none;align=center;verticalAlign=middle;whiteSpace=wrap;rounded=0;" parent="1" vertex="1">
          <mxGeometry x="980.21" y="130.42000000000002" width="40" height="20" as="geometry"/>
        </mxCell>
        <mxCell id="42" value="" style="endArrow=none;html=1;strokeWidth=1;fontColor=#82B366;strokeColor=#FF0000;exitX=0.75;exitY=0;exitDx=0;exitDy=0;" parent="1" edge="1">
          <mxGeometry width="50" height="50" relative="1" as="geometry">
            <mxPoint x="770.4200000000001" y="130.42000000000007" as="sourcePoint"/>
            <mxPoint x="800.21" y="110" as="targetPoint"/>
          </mxGeometry>
        </mxCell>
        <mxCell id="43" value="" style="endArrow=none;html=1;strokeWidth=1;fontColor=#82B366;strokeColor=#FF0000;exitX=0.75;exitY=0;exitDx=0;exitDy=0;" parent="1" edge="1">
          <mxGeometry width="50" height="50" relative="1" as="geometry">
            <mxPoint x="770.6300000000001" y="110.84000000000015" as="sourcePoint"/>
            <mxPoint x="800.4200000000001" y="130.42000000000007" as="targetPoint"/>
          </mxGeometry>
        </mxCell>
        <mxCell id="44" value="" style="ellipse;whiteSpace=wrap;html=1;aspect=fixed;fillColor=#d5e8d4;strokeColor=#82b366;rotation=0;" parent="1" vertex="1">
          <mxGeometry x="670" y="110.20999999999998" width="20.42" height="20.42" as="geometry"/>
        </mxCell>
        <mxCell id="46" value="Farthest possible route." style="text;html=1;strokeColor=none;fillColor=none;align=center;verticalAlign=middle;whiteSpace=wrap;rounded=0;" parent="1" vertex="1">
          <mxGeometry x="510.41999999999996" y="50" width="180" height="20" as="geometry"/>
        </mxCell>
        <mxCell id="49" value="No route found." style="text;html=1;strokeColor=none;fillColor=none;align=center;verticalAlign=middle;whiteSpace=wrap;rounded=0;" parent="1" vertex="1">
          <mxGeometry x="710.63" y="50" width="99.16" height="20" as="geometry"/>
        </mxCell>
        <mxCell id="54" value="" style="curved=1;endArrow=classic;html=1;strokeWidth=1;fontColor=#82B366;dashed=1;dashPattern=1 2;" parent="1" source="46" edge="1">
          <mxGeometry width="50" height="50" relative="1" as="geometry">
            <mxPoint x="500" y="30" as="sourcePoint"/>
            <mxPoint x="640" y="110" as="targetPoint"/>
            <Array as="points">
              <mxPoint x="640" y="80"/>
            </Array>
          </mxGeometry>
        </mxCell>
        <mxCell id="55" value="" style="curved=1;endArrow=classic;html=1;strokeWidth=1;fontColor=#82B366;dashed=1;dashPattern=1 2;" parent="1" source="49" edge="1">
          <mxGeometry width="50" height="50" relative="1" as="geometry">
            <mxPoint x="760.0033333333334" y="-40" as="sourcePoint"/>
            <mxPoint x="780" y="100" as="targetPoint"/>
            <Array as="points">
              <mxPoint x="780" y="80"/>
            </Array>
          </mxGeometry>
        </mxCell>
        <mxCell id="84" value="" style="endArrow=none;html=1;strokeWidth=1;fontColor=#82B366;strokeColor=#FF0000;" parent="1" edge="1">
          <mxGeometry width="50" height="50" relative="1" as="geometry">
            <mxPoint x="691" y="110" as="sourcePoint"/>
            <mxPoint x="691" y="130" as="targetPoint"/>
          </mxGeometry>
        </mxCell>
        <mxCell id="263" value="&lt;b&gt;Legend&lt;/b&gt;" style="text;html=1;strokeColor=none;align=center;verticalAlign=middle;whiteSpace=wrap;rounded=0;fillColor=#a8ca40;fontColor=#FFFFFF;" parent="1" vertex="1">
          <mxGeometry x="880.4200000000001" y="189.99999999999994" width="139.79" height="20" as="geometry"/>
        </mxCell>
        <mxCell id="268" value="" style="ellipse;whiteSpace=wrap;html=1;aspect=fixed;fillColor=#d5e8d4;strokeColor=#82b366;rotation=0;" parent="1" vertex="1">
          <mxGeometry x="889.9999999999995" y="219.99999999999994" width="20.42" height="20.42" as="geometry"/>
        </mxCell>
        <mxCell id="269" value="Sampling point" style="text;html=1;strokeColor=none;fillColor=none;align=left;verticalAlign=middle;whiteSpace=wrap;rounded=0;" parent="1" vertex="1">
          <mxGeometry x="930.8400000000001" y="219.99999999999994" width="89.37" height="20" as="geometry"/>
        </mxCell>
        <mxCell id="326" value="" style="curved=1;html=1;strokeColor=#D79B00;fontColor=#000000;fontSize=11;rounded=0;strokeWidth=3;" parent="1" edge="1">
          <mxGeometry width="50" height="50" relative="1" as="geometry">
            <mxPoint x="880.21" y="250.00000000000006" as="sourcePoint"/>
            <mxPoint x="920.21" y="250.00000000000006" as="targetPoint"/>
            <Array as="points"/>
          </mxGeometry>
        </mxCell>
        <mxCell id="327" value="&lt;span style=&quot;text-align: right&quot;&gt;Route&lt;/span&gt;" style="text;html=1;strokeColor=none;fillColor=none;align=left;verticalAlign=middle;whiteSpace=wrap;rounded=0;" parent="1" vertex="1">
          <mxGeometry x="930.8400000000001" y="239.99999999999994" width="89.37" height="20" as="geometry"/>
        </mxCell>
      </root>
    </mxGraphModel>
  </diagram>
</mxfile>
